<svg width="35" height="38" viewBox="0 0 35 38" fill="none" xmlns="http://www.w3.org/2000/svg">
<path d="M23.2358 11.0972L12.2362 22.0968C11.4769 22.8561 11.4769 24.0871 12.2362 24.8466C12.9956 25.6059 14.2268 25.6059 14.9861 24.8466L25.9857 13.8471C28.2636 11.569 28.2636 7.87553 25.9857 5.59745C23.7075 3.31939 20.014 3.31939 17.7359 5.59745L6.73648 16.5969C2.93971 20.3936 2.93971 26.5496 6.73648 30.3463C10.5333 34.143 16.689 34.143 20.4858 30.3463L31.4853 19.3467L34.2352 22.0968L23.2358 33.0961C17.9203 38.4117 9.30211 38.4117 3.98662 33.0961C-1.32887 27.7806 -1.32887 19.1626 3.98662 13.8471L14.9861 2.84758C18.7828 -0.949194 24.9388 -0.949194 28.7355 2.84758C32.5322 6.64436 32.5322 12.8002 28.7355 16.5969L17.7359 27.5965C15.458 29.8746 11.7644 29.8746 9.48637 27.5965C7.20828 25.3183 7.20828 21.6249 9.48637 19.3467L20.4858 8.34733L23.2358 11.0972Z" fill="#020005"/>
</svg>
