<svg width="20" height="18" viewBox="0 0 20 18" fill="none" xmlns="http://www.w3.org/2000/svg">
<path d="M11.4144 2H18.0002C18.5525 2 19.0002 2.44772 19.0002 3V4H1.00017V1C1.00017 0.44772 1.44789 0 2.00017 0H9.4144L11.4144 2ZM1.08697 6H18.9134C19.4657 6 19.9134 6.44772 19.9134 7C19.9134 7.0277 19.9122 7.0554 19.9099 7.083L19.0766 17.083C19.0334 17.6013 18.6001 18 18.08 18H1.9203C1.40021 18 0.966953 17.6013 0.923763 17.083L0.0904232 7.083C0.0445632 6.53267 0.453553 6.04932 1.00392 6.00345C1.03155 6.00115 1.05925 6 1.08697 6Z" fill="#020005"/>
</svg>
