<svg width="20" height="18" viewBox="0 0 20 18" fill="none" xmlns="http://www.w3.org/2000/svg">
<path d="M11.3275 2H17.9133C18.4656 2 18.9133 2.44772 18.9133 3V4H0.913259V1C0.913259 0.44772 1.36098 0 1.91326 0H9.32749L11.3275 2ZM1.00006 6H18.8265C19.3788 6 19.8265 6.44772 19.8265 7C19.8265 7.0277 19.8253 7.0554 19.823 7.083L18.9897 17.083C18.9465 17.6013 18.5132 18 17.9931 18H1.83339C1.3133 18 0.880039 17.6013 0.836849 17.083L0.0035091 7.083C-0.0423509 6.53267 0.366639 6.04932 0.917009 6.00345C0.944639 6.00115 0.972339 6 1.00006 6Z" fill="#020005"/>
</svg>
