<svg width="31" height="30" viewBox="0 0 31 30" fill="none" xmlns="http://www.w3.org/2000/svg">
<path d="M0.878052 29.878C0.878052 23.5918 5.97399 18.4959 12.2602 18.4959C18.5464 18.4959 23.6423 23.5918 23.6423 29.878H20.7968C20.7968 25.1634 16.9748 21.3415 12.2602 21.3415C7.54554 21.3415 3.72358 25.1634 3.72358 29.878H0.878052ZM12.2602 17.0732C7.5437 17.0732 3.72358 13.253 3.72358 8.53658C3.72358 3.82012 7.5437 0 12.2602 0C16.9766 0 20.7968 3.82012 20.7968 8.53658C20.7968 13.253 16.9766 17.0732 12.2602 17.0732ZM12.2602 14.2276C15.4045 14.2276 17.9512 11.6809 17.9512 8.53658C17.9512 5.39228 15.4045 2.84553 12.2602 2.84553C9.11586 2.84553 6.56911 5.39228 6.56911 8.53658C6.56911 11.6809 9.11586 14.2276 12.2602 14.2276ZM24.0459 19.4959C28.0022 21.279 30.7561 25.2569 30.7561 29.878H27.9106C27.9106 26.4122 25.8451 23.4288 22.878 22.0914L24.0459 19.4959ZM23.0678 3.43343C25.9107 4.60553 27.9106 7.40351 27.9106 10.6707C27.9106 14.7543 24.7865 18.105 20.7968 18.4641V15.6C23.2108 15.2552 25.065 13.1805 25.065 10.6707C25.065 8.70639 23.9291 7.00858 22.2778 6.19806L23.0678 3.43343Z" fill="#020005"/>
</svg>
