<svg width="35" height="37" viewBox="0 0 35 37" fill="none" xmlns="http://www.w3.org/2000/svg">
<path d="M21.1563 28.0707L11.5038 22.7893C10.3088 23.9792 8.66315 24.7143 6.84628 24.7143C3.19506 24.7143 0.235168 21.7453 0.235168 18.0828C0.235168 14.4202 3.19506 11.4512 6.84628 11.4512C8.66303 11.4512 10.3086 12.1863 11.5036 13.3761L21.1563 8.09475C21.0624 7.64947 21.0129 7.18771 21.0129 6.71434C21.0129 3.05182 23.9728 0.0827637 27.6241 0.0827637C31.2753 0.0827637 34.2352 3.05182 34.2352 6.71434C34.2352 10.3769 31.2753 13.3459 27.6241 13.3459C25.8071 13.3459 24.1615 12.6108 22.9666 11.4208L13.3139 16.7021C13.4079 17.1475 13.4574 17.6093 13.4574 18.0828C13.4574 18.5561 13.408 19.0178 13.314 19.4631L22.9666 24.7447C24.1617 23.5548 25.8073 22.8196 27.6241 22.8196C31.2753 22.8196 34.2352 25.7887 34.2352 29.4512C34.2352 33.1137 31.2753 36.0828 27.6241 36.0828C23.9728 36.0828 21.0129 33.1137 21.0129 29.4512C21.0129 28.9779 21.0624 28.5159 21.1563 28.0707Z" fill="#020005"/>
</svg>
