<svg width="20" height="18" viewBox="0 0 20 18" fill="none" xmlns="http://www.w3.org/2000/svg">
<path d="M0 0.9934C0 0.44476 0.494389 0 1.10378 0H18.8962C19.5058 0 20 0.44495 20 0.9934V17.0066C20 17.5552 19.5057 18 18.8962 18H1.10378C0.494178 18 0 17.5551 0 17.0066V0.9934ZM8.46878 5.41459C8.39578 5.37078 8.31 5.34741 8.22222 5.34741C7.97678 5.34741 7.77778 5.52649 7.77778 5.74741V12.2526C7.77778 12.3316 7.80378 12.4088 7.85244 12.4745C7.98856 12.6583 8.26456 12.708 8.46878 12.5854L13.8898 9.3328C13.9386 9.3035 13.9804 9.2658 14.013 9.2219C14.1492 9.0381 14.094 8.7897 13.8898 8.6672L8.46878 5.41459Z" fill="#020005"/>
</svg>
